<svg preserveAspectRatio="none" width="192" height="563" viewBox="0 0 192 563" fill="none" xmlns="http://www.w3.org/2000/svg">
<path d="M158.937 0.16376C155.599 0.546888 153.149 0.988421 133.994 4.65681C131.735 5.08937 128.518 5.7046 126.845 6.024C125.172 6.3434 121.956 6.95862 119.697 7.39118C117.438 7.82374 114.393 8.40536 112.929 8.68369C111.465 8.96187 108.419 9.54364 106.16 9.9765C103.902 10.4092 100.856 10.991 99.3922 11.2693C97.9283 11.5475 94.8826 12.13 92.624 12.5639C90.3653 12.9977 87.3196 13.5796 85.8557 13.8569C84.3918 14.1342 81.3461 14.7161 79.0875 15.1498C76.8289 15.5838 73.7831 16.1663 72.3192 16.4445C70.8553 16.7228 67.8096 17.3044 65.551 17.737C61.451 18.5221 57.9272 19.1957 52.4708 20.2373C50.8814 20.5407 47.2881 21.2285 44.4858 21.7658C41.6834 22.3032 37.2346 23.1546 34.5996 23.6582C26.5685 25.1925 23.1412 26.1594 19.4661 27.927C10.6516 32.1669 4.46316 40.703 1.82492 52.2609C0.97532 55.9825 0.596451 58.8979 0.194159 64.8088C-0.0225765 67.9955 -0.0557333 165.218 0.0840417 388.544C0.149443 492.984 0.213779 526.608 0.351121 528.167C1.15373 537.279 2.29505 542.067 4.9409 547.421C8.2003 554.017 12.9892 558.429 19.0859 560.457C22.2708 561.517 25.1446 561.905 30.7212 562.03C35.4227 562.135 155.088 561.68 158.785 561.543C164.839 561.319 168.84 560.58 172.631 558.982C182.086 554.997 188.487 545.336 190.49 532.023C191.487 525.384 191.554 521.454 191.261 486.52C191.176 476.258 191.002 453.351 190.876 435.617C190.75 417.883 190.443 376.92 190.195 344.588C189.947 312.257 189.671 275.914 189.585 263.825C189.498 251.738 189.223 215.327 188.975 182.911C188.725 150.495 188.421 109.669 188.298 92.1859C187.863 30.3125 187.898 32.2218 187.063 25.4922C185.534 13.1731 180.2 4.67902 171.964 1.44942C169.365 0.430079 167.37 0.0784349 163.805 0.0113609C161.836 -0.0255983 160.118 0.0282435 158.937 0.16376ZM114.982 16.5734C116.883 17.082 118.632 18.4882 119.583 20.2724C120.567 22.1194 120.879 23.3785 120.955 25.7963C121.039 28.4816 120.784 30.0629 119.92 32.2262C118.583 35.5732 116.326 38.0409 113.68 39.0461C112.863 39.3564 108.045 40.2525 76.0637 46.043C69.4954 47.2322 68.3927 47.3235 66.9796 46.7948C65.3113 46.1706 64.1143 45.1322 63.1996 43.5154C60.0246 37.9033 62.072 29.0352 67.327 25.6388C68.8426 24.6591 69.1617 24.5776 77.7186 22.9826C80.2282 22.5149 83.3081 21.9336 84.5629 21.6911C85.8177 21.4485 88.7265 20.8999 91.027 20.4718C93.3274 20.0438 96.4415 19.4626 97.9473 19.1805C99.453 18.8982 102.773 18.2824 105.324 17.8119C107.875 17.3414 110.579 16.8308 111.332 16.677C113.007 16.3349 113.987 16.3073 114.982 16.5734Z" fill="white"/>
</svg>
